<svg aria-hidden='true' viewBox="0 0 40 40">

  <symbol width="40" height="40" viewBox="0 0 40 40" xmlns="http://www.w3.org/2000/svg" id="burger">
    <rect width="40" height="40" rx="20"/>
    <path fill-rule="evenodd" clip-rule="evenodd" d="M11 13C11 12.4477 11.4477 12 12 12H28C28.5523 12 29 12.4477 29 13C29 13.5523 28.5523 14 28 14H12C11.4477 14 11 13.5523 11 13ZM11 20C11 19.4477 11.4477 19 12 19H20C20.5523 19 21 19.4477 21 20C21 20.5523 20.5523 21 20 21H12C11.4477 21 11 20.5523 11 20ZM12 26C11.4477 26 11 26.4477 11 27C11 27.5523 11.4477 28 12 28H24C24.5523 28 25 27.5523 25 27C25 26.4477 24.5523 26 24 26H12Z" fill="white"/>
  </symbol>

  <symbol width="40" height="40" viewBox="0 0 40 40" xmlns="http://www.w3.org/2000/svg" id="call">
    <rect width="40" height="40" rx="20"/>
    <path fill-rule="evenodd" clip-rule="evenodd" d="M12.7602 23.25L15.3002 22.96C15.9102 22.89 16.5102 23.1 16.9402 23.53L18.7802 25.37C21.6102 23.93 23.9302 21.62 25.3702 18.78L23.5202 16.93C23.0902 16.5 22.8802 15.9 22.9502 15.29L23.2402 12.77C23.3602 11.76 24.2102 11 25.2302 11H26.9602C28.0902 11 29.0302 11.94 28.9602 13.07C28.4302 21.61 21.6002 28.43 13.0702 28.96C11.9402 29.03 11.0002 28.09 11.0002 26.96V25.23C10.9902 24.22 11.7502 23.37 12.7602 23.25Z" fill="white" fill-opacity="1.000000"/>
  </symbol>

  <symbol width="40" height="40" viewBox="0 0 40 40" fill="none" xmlns="http://www.w3.org/2000/svg" id="chat">
    <rect width="40" height="40" rx="20" fill="#FF3E79"/>
    <path fill-rule="evenodd" clip-rule="evenodd" d="M28 11H12C10.9 11 10.01 11.9 10.01 13L10 31L14 26H28C29.1 26 30 25.1 30 24V13C30 11.9 29.1 11 28 11ZM21 22H15C14.45 22 14 21.55 14 21C14 20.45 14.45 20 15 20H21C21.55 20 22 20.45 22 21C22 21.55 21.55 22 21 22ZM25 17H15C14.45 17 14 16.55 14 16C14 15.45 14.45 15 15 15H25C25.55 15 26 15.45 26 16C26 16.55 25.55 17 25 17Z" fill="white" fill-opacity="1.000000"/>
    <mask id="mask0_0_1880" style="mask-type:luminance" maskUnits="userSpaceOnUse" x="10" y="11" width="20" height="20">
    <path fill-rule="evenodd" clip-rule="evenodd" d="M28 11H12C10.9 11 10.01 11.9 10.01 13L10 31L14 26H28C29.1 26 30 25.1 30 24V13C30 11.9 29.1 11 28 11ZM21 22H15C14.45 22 14 21.55 14 21C14 20.45 14.45 20 15 20H21C21.55 20 22 20.45 22 21C22 21.55 21.55 22 21 22ZM25 17H15C14.45 17 14 16.55 14 16C14 15.45 14.45 15 15 15H25C25.55 15 26 15.45 26 16C26 16.55 25.55 17 25 17Z" fill="white" fill-opacity="1.000000"/>
    </mask>
    <g mask="url(#mask0_0_1880)">
    </g>
  </symbol>

  <symbol width="40" height="40" viewBox="0 0 40 40" xmlns="http://www.w3.org/2000/svg" id="profile">
    <rect width="40" height="40" rx="20" fill="#FF3E79"/>
    <path d="M20.5 19C22.9853 19 25 16.9853 25 14.5C25 12.0147 22.9853 10 20.5 10C18.0147 10 16 12.0147 16 14.5C16 16.9853 18.0147 19 20.5 19Z" fill="white" fill-opacity="1.000000"/>
    <path d="M10.0166 26.6118C9.88693 27.3412 10.5352 28 11.339 28H28.6604C29.4902 28 30.1125 27.3412 29.9829 26.6118C29.2309 22.4 25.0561 20 19.9997 20C14.9433 20 10.7686 22.4 10.0166 26.6118Z" fill="white" fill-opacity="1.000000"/>
  </symbol>

  <symbol width="40" height="40" viewBox="0 0 40 40" fill="none" xmlns="http://www.w3.org/2000/svg" id="repair">
    <rect width="40" height="40" rx="20" fill="#FF3E79"/>
    <path d="M18.2581 23.4583L18.6668 23.0494L16.95 21.3322L16.5412 21.7411L16.3368 21.5367C16.0098 21.1687 15.6828 20.9643 15.3558 21.0052C15.1105 21.0052 14.9061 21.1687 14.7426 21.414C14.4973 21.8229 14.62 22.2726 14.6608 22.5588C14.6608 22.6406 14.7017 22.6815 14.7017 22.7632C14.7017 22.8859 14.7017 23.0494 14.4156 23.0903C14.0068 23.213 13.4754 23.3356 12.944 23.6218C12.2082 24.0307 11.7176 24.3987 11.4315 24.7666C9.91902 26.7291 10.0008 28.4055 10.0008 28.4872C10.0008 28.6099 10.0417 28.6917 10.1234 28.7325L11.2271 29.8773C11.3089 29.9591 11.3906 30 11.4724 30C11.4724 30 11.5133 30 11.595 30C12.0038 30 13.4754 29.9182 15.1922 28.569C15.5601 28.2828 15.928 27.7922 16.3368 27.0562C16.623 26.5656 16.7865 26.0341 16.8682 25.5844C16.95 25.2982 17.0726 25.2982 17.1953 25.2982C17.2361 25.2982 17.3179 25.339 17.3996 25.339C17.5631 25.3799 17.7267 25.4208 17.931 25.4208C18.1354 25.4208 18.3398 25.3799 18.5442 25.2573C18.7895 25.0937 18.953 24.8893 18.9939 24.644C19.0347 24.3169 18.8712 23.9898 18.5033 23.7036L18.2581 23.4583Z" fill="white" fill-opacity="1.000000"/>
    <path d="M26.884 14.8784L28.0188 14.326C28.0609 14.2835 28.1449 14.241 28.1869 14.1986L29.9101 11.8616C30.0362 11.6916 30.0362 11.4367 29.8681 11.3092L28.6913 10.1195C28.5652 9.99199 28.313 9.9495 28.1449 10.077L25.8333 11.8191C25.7913 11.8616 25.7493 11.9041 25.7072 11.989L25.1609 13.1363L21 17.2154L22.7652 19L26.884 14.8784Z" fill="white" fill-opacity="1.000000"/>
    <path d="M27.8527 23.0448C26.8636 22.0036 25.4393 21.6288 24.0941 22.0036L17.6453 15.1733C17.7244 14.7985 17.764 14.4653 17.764 14.0905C17.764 13.0493 17.3683 12.0081 16.6166 11.2167C15.588 10.0923 14.045 9.71742 12.6207 10.2172C12.5416 10.2588 12.4229 10.3838 12.3833 10.5504C12.3833 10.6753 12.4229 10.8003 12.502 10.9252L14.4406 12.966C14.8758 13.4241 14.8758 14.2154 14.4406 14.6735C14.0054 15.1317 13.2537 15.1317 12.8185 14.6735L10.8799 12.6328C10.7612 12.5495 10.6425 12.5078 10.4843 12.5495C10.3656 12.5495 10.2469 12.6744 10.2073 12.7994C9.73256 14.2571 10.0886 15.8813 11.1173 16.9642C11.8294 17.7555 12.8581 18.172 13.8867 18.172C14.2032 18.172 14.5593 18.1303 14.8758 18.047L21.3642 24.8773C21.0082 26.2933 21.4038 27.7927 22.3533 28.8339C23.105 29.6252 24.0546 30 25.0832 30C25.5184 30 25.914 29.9167 26.3492 29.7918C26.4679 29.7501 26.5866 29.6252 26.6262 29.5002C26.6658 29.3753 26.6262 29.2087 26.5075 29.1254L24.5689 27.0846C24.3711 26.8764 24.2128 26.5432 24.2128 26.21C24.2128 25.8768 24.3315 25.5853 24.5689 25.3354C24.8063 25.0855 25.0832 24.9606 25.3997 24.9606C25.7162 24.9606 25.9932 25.0855 26.2306 25.3354L28.1692 27.3762C28.2879 27.4595 28.4065 27.5011 28.5252 27.5011C28.6439 27.4595 28.7626 27.3762 28.8022 27.2512C28.9209 26.8348 29 26.3766 29 25.9185C29 24.8356 28.6044 23.7944 27.8527 23.0448Z" fill="white" fill-opacity="1.000000"/>
  </symbol>

  <symbol width="40" height="40" viewBox="0 0 40 40" fill="none" xmlns="http://www.w3.org/2000/svg" id="checkstatus">
    <rect width="40" height="40" rx="20" fill="#FF3E79"/>
    <path fill-rule="evenodd" clip-rule="evenodd" d="M12 11C12 10.4477 12.4477 10 13 10H27C27.5523 10 28 10.4477 28 11V28.5C27.1716 28.5 26.5001 29.1715 26.5 29.9999H25.5C25.4999 29.1715 24.8284 28.5 24 28.5C23.1716 28.5 22.5001 29.1715 22.5 29.9999H21.5C21.4999 29.1715 20.8284 28.5 20 28.5C19.1716 28.5 18.5001 29.1715 18.5 29.9999H17.5C17.4999 29.1715 16.8284 28.5 16 28.5C15.1716 28.5 14.5001 29.1715 14.5 29.9999H13.5C13.4999 29.1715 12.8284 28.5 12 28.5V11ZM21.4164 21.7884C20.5536 22.3444 19.4704 22.5936 18.3296 22.3827C16.5275 22.0472 15.0896 20.5327 14.8595 18.7114C14.4952 15.8261 16.9493 13.4201 19.8538 13.8802C21.656 14.1678 23.1035 15.644 23.4007 17.4365C23.5828 18.5485 23.324 19.5741 22.7872 20.4273L24.8961 22.5265C25.2699 22.9004 25.2699 23.5138 24.8961 23.8877C24.5126 24.2711 23.8991 24.2711 23.5253 23.8973L21.4164 21.7884ZM16.7059 18.0588C16.7059 16.76 17.76 15.7059 19.0588 15.7059C20.3576 15.7059 21.4118 16.76 21.4118 18.0588C21.4118 19.3576 20.3576 20.4118 19.0588 20.4118C17.76 20.4118 16.7059 19.3576 16.7059 18.0588Z" fill="white" fill-opacity="1.000000"/>
  </symbol>

  <symbol width="7.414062" height="10.292969" viewBox="0 0 7.41406 10.293" fill="none" xmlns="http://www.w3.org/2000/svg" xmlns:xlink="http://www.w3.org/1999/xlink" id="arrow">
    <defs/>
    <path id="icon" d="M3.70703 2.70703L6.20703 0.207031C6.4834 -0.0690918 6.93115 -0.0690918 7.20703 0.207031C7.4834 0.483154 7.4834 0.930908 7.20703 1.20703L4.41406 4C4.02393 4.39062 3.39062 4.39062 3 4L0.207031 1.20703C-0.0688477 0.930908 -0.0688477 0.483154 0.207031 0.207031C0.483398 -0.0690918 0.931152 -0.0690918 1.20703 0.207031L3.70703 2.70703ZM6.20703 6.20703L3.70703 8.70703L1.20703 6.20703C0.931152 5.93091 0.483398 5.93091 0.207031 6.20703C-0.0688477 6.48315 -0.0688477 6.93091 0.207031 7.20703L3 10C3.39062 10.3906 4.02393 10.3906 4.41406 10L7.20703 7.20703C7.4834 6.93091 7.4834 6.48315 7.20703 6.20703C6.93115 5.93091 6.4834 5.93091 6.20703 6.20703Z" clip-rule="evenodd" fill="#41F6D7" fill-opacity="1.000000" fill-rule="evenodd"/>
  </symbol>

  <symbol width="40.000000" height="40.000000" viewBox="0 0 40 40" xmlns="http://www.w3.org/2000/svg" xmlns:xlink="http://www.w3.org/1999/xlink" id="search-btn">
	  <defs/>
	  <rect id="back" rx="20.000000" width="40.000000" height="40.000000"/>
	  <path id="icon" d="M23.5007 22.0005L22.7107 22.0005L22.4307 21.7305C23.6306 20.3306 24.2507 18.4204 23.9106 16.3906C23.4407 13.6108 21.1206 11.3906 18.3206 11.0508C14.0906 10.5308 10.5305 14.0908 11.0505 18.3208C11.3906 21.1206 13.6106 23.4404 16.3906 23.9106C18.4207 24.2505 20.3306 23.6309 21.7307 22.4307L22.0007 22.7104L22.0007 23.5005L26.2607 27.7505C26.6707 28.1606 27.3306 28.1606 27.7407 27.7505L27.7507 27.7407C28.1606 27.3306 28.1606 26.6704 27.7507 26.2607L23.5007 22.0005ZM13.0007 17.5005C13.0007 19.9907 15.0107 22.0005 17.5007 22.0005C19.9907 22.0005 22.0007 19.9907 22.0007 17.5005C22.0007 15.0107 19.9907 13.0005 17.5007 13.0005C15.0107 13.0005 13.0007 15.0107 13.0007 17.5005Z" clip-rule="evenodd" fill="#FFFFFF" fill-opacity="1.000000" fill-rule="evenodd"/>
  </symbol>

  <symbol width="40.000000" height="40.000000" viewBox="0 0 40 40" xmlns="http://www.w3.org/2000/svg" xmlns:xlink="http://www.w3.org/1999/xlink" id="close-btn">
	  <defs/>
	  <rect id="back" rx="20.000000" width="40.000000" height="40.000000"/>
	  <path id="icon" d="M21.5361 20L27.7427 26.2065C28.1333 26.5972 28.1333 27.2305 27.7427 27.6211L27.6206 27.7432C27.23 28.1333 26.5969 28.1333 26.2063 27.7432L20 21.5366L13.7935 27.7432C13.4028 28.1333 12.7698 28.1333 12.3792 27.7432L12.2571 27.6211C11.8665 27.2305 11.8665 26.5972 12.2571 26.2065L18.4636 20L12.2571 13.7935C11.8665 13.4033 11.8665 12.77 12.2571 12.3794L12.3792 12.2573C12.7698 11.8667 13.4028 11.8667 13.7935 12.2573L20 18.4639L26.2063 12.2573C26.5969 11.8667 27.23 11.8667 27.6206 12.2573L27.7427 12.3794C28.1333 12.77 28.1333 13.4033 27.7427 13.7935L21.5361 20Z" clip-rule="evenodd" fill="#FFFFFF" fill-opacity="1.000000" fill-rule="evenodd"/>
  </symbol>

  <symbol width="40.000000" height="40.000000" viewBox="0 0 40 40" xmlns="http://www.w3.org/2000/svg" xmlns:xlink="http://www.w3.org/1999/xlink" id="arrow-logo">
	  <defs/>
	  <rect id="back" x="1.000000" y="1.000000" rx="19.000000" width="38.000000" height="38.000000" fill="#D8D8D8" fill-opacity="0"/>
	  <rect id="back" x="1.000000" y="1.000000" rx="19.000000" width="38.000000" height="38.000000" stroke="#FF3E79" stroke-opacity="1.000000" stroke-width="2.000000"/>
	  <path id="dropdown" d="M21.5 20L17.707 16.207C17.3167 15.8167 17.3167 15.1833 17.707 14.793L17.793 14.707C18.1833 14.3167 18.8167 14.3167 19.207 14.707L23.793 19.293C24.1833 19.6833 24.1833 20.3167 23.793 20.707L19.207 25.293C18.8167 25.6833 18.1833 25.6833 17.793 25.293L17.707 25.207C17.3167 24.8167 17.3167 24.1833 17.707 23.793L21.5 20Z" fill="#FF3E79" fill-opacity="1.000000" fill-rule="evenodd"/>
  </symbol>

  <symbol width="6.161133" height="11.329346" viewBox="0 0 6.16113 11.3293" xmlns="http://www.w3.org/2000/svg" xmlns:xlink="http://www.w3.org/1999/xlink" id="arrow-right">
    <defs/>
    <path id="Line" d="M0.243164 10.8303L0.375 10.9832C0.773926 11.4448 1.48975 11.4448 1.88818 10.9832L5.91797 6.31836C6.24219 5.94287 6.24219 5.38647 5.91797 5.01099L1.88818 0.346191C1.48975 -0.115479 0.773926 -0.115479 0.375 0.346191L0.243164 0.498779C-0.0810547 0.874268 -0.0810547 1.43066 0.243164 1.80615L3.57617 5.66455L0.243164 9.52295C-0.0810547 9.89844 -0.0810547 10.4551 0.243164 10.8303Z" fill-opacity="1.000000" fill-rule="evenodd"/>
  </symbol>

  <symbol width="6.059082" height="9.232666" viewBox="0 0 6.05908 9.23267" fill="none" xmlns="http://www.w3.org/2000/svg" xmlns:xlink="http://www.w3.org/1999/xlink" id="arrow-right-2">
    <defs/>
    <path id="dropdown" d="M3.33105 4.6333L0.32251 1.8623C-0.10498 1.46851 -0.10791 0.794678 0.316162 0.397217L0.451416 0.270508C0.834229 -0.088623 1.42944 -0.090332 1.8147 0.266357L5.73853 3.89941C6.16602 4.29517 6.16602 4.97119 5.73853 5.36694L1.87769 8.94189C1.45703 9.3313 0.806885 9.32935 0.388672 8.93726C-0.0744629 8.50293 -0.0712891 7.76685 0.395508 7.33691L3.33105 4.6333Z" fill="#FFFFFF" fill-opacity="1.000000" fill-rule="evenodd"/>
  </symbol>

  <symbol width="16.071548" height="16.071533" viewBox="0 0 16.0715 16.0715" fill="none" xmlns="http://www.w3.org/2000/svg" xmlns:xlink="http://www.w3.org/1999/xlink" id="btn-close">
    <defs/>
    <path id="icon" d="M9.57214 8.03589L15.7787 14.2422C16.1692 14.6328 16.1692 15.2659 15.7787 15.6565L15.6565 15.7786C15.266 16.1692 14.6328 16.1692 14.2423 15.7786L8.03578 9.57202L1.82925 15.7786C1.43874 16.1692 0.805573 16.1692 0.415039 15.7786L0.292892 15.6565C-0.0976257 15.2659 -0.0976257 14.6328 0.292892 14.2422L6.49942 8.03589L0.292892 1.82935C-0.0976257 1.43872 -0.0976257 0.805664 0.292892 0.415039L0.415039 0.292969C0.805573 -0.0976562 1.43874 -0.0976562 1.82925 0.292969L8.03578 6.49951L14.2423 0.292969C14.6328 -0.0976562 15.266 -0.0976562 15.6565 0.292969L15.7787 0.415039C16.1692 0.805664 16.1692 1.43872 15.7787 1.82935L9.57214 8.03589Z" clip-rule="evenodd" fill="#FFFFFF" fill-opacity="1.000000" fill-rule="evenodd"/>
  </symbol>
</svg>
